<svg width="24" height="24" viewBox="0 0 24 24" fill="none" xmlns="http://www.w3.org/2000/svg">
<path d="M11.3531 12.8144V16.0728C11.3531 16.2764 11.4225 16.4471 11.5611 16.5847C11.6996 16.7226 11.8713 16.7915 12.0762 16.7915C12.2809 16.7915 12.4512 16.7226 12.587 16.5847C12.7227 16.4471 12.7906 16.2764 12.7906 16.0728V12.8144H16.0729C16.2766 12.8144 16.4473 12.7451 16.5852 12.6065C16.7228 12.468 16.7917 12.2963 16.7917 12.0914C16.7917 11.8866 16.7228 11.7163 16.5852 11.5806C16.4473 11.4448 16.2766 11.3769 16.0729 11.3769H12.7906V7.92692C12.7906 7.72328 12.7213 7.55255 12.5827 7.41469C12.4442 7.27703 12.2725 7.20817 12.0676 7.20817C11.8628 7.20817 11.6925 7.27703 11.5568 7.41469C11.421 7.55255 11.3531 7.72328 11.3531 7.92692V11.3769H7.92709C7.72344 11.3769 7.55276 11.4463 7.4151 11.5849C7.27724 11.7234 7.20834 11.895 7.20834 12.1C7.20834 12.3047 7.27724 12.475 7.4151 12.6108C7.55276 12.7465 7.72344 12.8144 7.92709 12.8144H11.3531ZM12.0065 21.5832C10.6849 21.5832 9.44308 21.3316 8.28095 20.8285C7.11864 20.3254 6.10228 19.6386 5.23178 18.7681C4.36129 17.8976 3.67448 16.8806 3.17136 15.7172C2.66823 14.5538 2.41667 13.3107 2.41667 11.9879C2.41667 10.665 2.66823 9.42192 3.17136 8.2585C3.67448 7.09509 4.36129 6.08213 5.23178 5.21963C6.10228 4.35713 7.11921 3.67432 8.28263 3.17119C9.44605 2.66807 10.6891 2.4165 12.012 2.4165C13.3348 2.4165 14.5779 2.66807 15.7413 3.17119C16.9048 3.67432 17.9177 4.35713 18.7802 5.21963C19.6427 6.08213 20.3255 7.09638 20.8287 8.26234C21.3318 9.42829 21.5833 10.672 21.5833 11.9934C21.5833 13.3149 21.3318 14.5568 20.8287 15.7189C20.3255 16.8812 19.6427 17.8961 18.7802 18.7638C17.9177 19.6312 16.9035 20.318 15.7375 20.8242C14.5715 21.3302 13.3279 21.5832 12.0065 21.5832Z" fill="black"/>
</svg>
