<svg width="24" height="24" viewBox="0 0 24 24" fill="none" xmlns="http://www.w3.org/2000/svg">
<path d="M12 18.5526L6.4 20.8509C5.82857 21.088 5.28571 21.0424 4.77143 20.7141C4.25714 20.3857 4 19.9298 4 19.3461V3.64158C4 3.20383 4.17143 2.82079 4.51429 2.49248C4.85714 2.16416 5.25714 2 5.71429 2H18.2857C18.7429 2 19.1429 2.16416 19.4857 2.49248C19.8286 2.82079 20 3.20383 20 3.64158V19.3461C20 19.9298 19.7429 20.3857 19.2286 20.7141C18.7143 21.0424 18.1714 21.088 17.6 20.8509L12 18.5526Z" fill="black"/>
<path d="M13.7428 13.6825L12 12.6702L10.2571 13.6825C10.1047 13.7737 9.95239 13.7646 9.79999 13.6552C9.64759 13.5457 9.59045 13.3998 9.62856 13.2174L10.0857 11.3296L8.57142 10.071C8.41902 9.94339 8.37142 9.79745 8.42856 9.63329C8.4857 9.46913 8.60953 9.37792 8.79999 9.35969L10.8 9.19553L11.6 7.38979C11.6762 7.22563 11.8095 7.14355 12 7.14355C12.1904 7.14355 12.3238 7.22563 12.4 7.38979L13.2 9.19553L15.2 9.35969C15.3904 9.37792 15.5143 9.46913 15.5714 9.63329C15.6286 9.79745 15.581 9.94339 15.4286 10.071L13.9143 11.3296L14.3714 13.2174C14.4095 13.3998 14.3524 13.5457 14.2 13.6552C14.0476 13.7646 13.8952 13.7737 13.7428 13.6825Z" fill="white"/>
</svg>
