<svg width="24" height="24" viewBox="0 0 24 24" fill="none" xmlns="http://www.w3.org/2000/svg">
<path d="M12 12.6703L13.7429 13.6826C13.8953 13.7738 14.0476 13.7647 14.2 13.6552C14.3524 13.5458 14.4095 13.3999 14.3714 13.2175L13.9143 11.3297L15.4286 10.0711C15.581 9.94346 15.6286 9.79752 15.5714 9.63336C15.5143 9.46921 15.3905 9.37799 15.2 9.35977L13.2 9.19561L12.4 7.38987C12.3238 7.22571 12.1905 7.14363 12 7.14363C11.8095 7.14363 11.6762 7.22571 11.6 7.38987L10.8 9.19561L8.8 9.35977C8.60954 9.37799 8.48571 9.46921 8.42857 9.63336C8.37143 9.79752 8.41903 9.94346 8.57143 10.0711L10.0857 11.3297L9.62857 13.2175C9.59046 13.3999 9.6476 13.5458 9.8 13.6552C9.9524 13.7647 10.1047 13.7738 10.2571 13.6826L12 12.6703ZM12 18.5526L6.4 20.8509C5.82857 21.088 5.28571 21.0424 4.77143 20.7141C4.25714 20.3857 4 19.9298 4 19.3461V3.64158C4 3.20383 4.17143 2.82079 4.51429 2.49248C4.85714 2.16416 5.25714 2 5.71429 2H18.2857C18.7429 2 19.1429 2.16416 19.4857 2.49248C19.8286 2.82079 20 3.20383 20 3.64158V19.3461C20 19.9298 19.7429 20.3857 19.2286 20.7141C18.7143 21.0424 18.1714 21.088 17.6 20.8509L12 18.5526Z" fill="black"/>
</svg>
