<svg width="24" height="24" viewBox="0 0 24 24" fill="none" xmlns="http://www.w3.org/2000/svg">
<path d="M11.5 11.6957C10.1938 11.6957 9.125 11.2899 8.29375 10.4783C7.4625 9.66667 7.04688 8.62319 7.04688 7.34783C7.04688 6.07246 7.4625 5.02899 8.29375 4.21739C9.125 3.4058 10.1938 3 11.5 3C12.8063 3 13.875 3.4058 14.7063 4.21739C15.5375 5.02899 15.9531 6.07246 15.9531 7.34783C15.9531 8.62319 15.5375 9.66667 14.7063 10.4783C13.875 11.2899 12.8063 11.6957 11.5 11.6957ZM2 19.2609V18.2754C2 17.541 2.18802 16.913 2.56406 16.3913C2.9401 15.8696 3.425 15.4734 4.01875 15.2029C5.34477 14.6232 6.61641 14.1884 7.83359 13.8986C9.05078 13.6087 10.2729 13.4638 11.5 13.4638C12.7271 13.4638 13.9443 13.6135 15.1516 13.913C16.3588 14.2126 17.6255 14.6425 18.9516 15.2029C19.5651 15.4734 20.0599 15.8696 20.4359 16.3913C20.812 16.913 21 17.541 21 18.2754V19.2609C21 19.7439 20.8268 20.1546 20.4805 20.4928C20.1341 20.8309 19.7135 21 19.2188 21H3.78125C3.28648 21 2.86588 20.8309 2.51953 20.4928C2.17318 20.1546 2 19.7439 2 19.2609Z" fill="#0028AA"/>
</svg>
