<svg width="24" height="24" viewBox="0 0 24 24" fill="none" xmlns="http://www.w3.org/2000/svg">
<path d="M12.0965 17.5821C12.3516 17.5821 12.567 17.4941 12.7427 17.3179C12.9184 17.1417 13.0062 16.9261 13.0062 16.671C13.0062 16.4159 12.9182 16.2005 12.742 16.0248C12.5658 15.8491 12.3502 15.7613 12.0951 15.7613C11.8401 15.7613 11.6247 15.8494 11.449 16.0256C11.2732 16.2017 11.1854 16.4174 11.1854 16.6724C11.1854 16.9275 11.2735 17.1429 11.4497 17.3186C11.6259 17.4943 11.8415 17.5821 12.0965 17.5821ZM12.0065 21.5832C10.6849 21.5832 9.44307 21.3316 8.28095 20.8285C7.11863 20.3254 6.10227 19.6386 5.23177 18.7681C4.36128 17.8976 3.67448 16.8806 3.17135 15.7172C2.66823 14.5538 2.41666 13.3107 2.41666 11.9879C2.41666 10.665 2.66823 9.42192 3.17135 8.2585C3.67448 7.09509 4.36128 6.08213 5.23177 5.21963C6.10227 4.35713 7.11921 3.67432 8.28262 3.17119C9.44604 2.66807 10.6891 2.4165 12.012 2.4165C13.3348 2.4165 14.5779 2.66807 15.7413 3.17119C16.9047 3.67432 17.9177 4.35713 18.7802 5.21963C19.6427 6.08213 20.3255 7.09638 20.8286 8.26234C21.3318 9.42829 21.5833 10.672 21.5833 11.9934C21.5833 13.3149 21.3318 14.5568 20.8286 15.7189C20.3255 16.8812 19.6427 17.8961 18.7802 18.7638C17.9177 19.6312 16.9035 20.318 15.7375 20.8242C14.5715 21.3302 13.3279 21.5832 12.0065 21.5832ZM12.0664 7.68734C12.5492 7.68734 12.9743 7.83506 13.3417 8.13057C13.709 8.42607 13.8927 8.80298 13.8927 9.2614C13.8927 9.68149 13.7677 10.0467 13.5178 10.357C13.2678 10.6674 12.9855 10.9594 12.6708 11.2332C12.3035 11.5366 11.984 11.8751 11.7125 12.2485C11.441 12.6221 11.3052 13.0424 11.3052 13.5092C11.3052 13.6849 11.3723 13.8246 11.5065 13.9285C11.6406 14.0323 11.7972 14.0842 11.976 14.0842C12.1677 14.0842 12.3265 14.0203 12.4523 13.8925C12.578 13.7648 12.6589 13.605 12.6948 13.4134C12.7427 13.078 12.8705 12.7745 13.0781 12.503C13.2857 12.2314 13.5272 11.9856 13.8024 11.7655C14.198 11.4426 14.5236 11.0655 14.7792 10.6342C15.0347 10.203 15.1625 9.73491 15.1625 9.23001C15.1625 8.42516 14.863 7.75524 14.2641 7.22015C13.6651 6.68506 12.9547 6.41755 12.133 6.41755C11.5652 6.41755 11.0177 6.53734 10.4906 6.77692C9.96354 7.0165 9.53229 7.36788 9.19687 7.83109C9.08508 7.99079 9.03314 8.16253 9.04114 8.34619C9.04915 8.52986 9.12476 8.67763 9.26803 8.78942C9.45026 8.91721 9.63914 8.95713 9.83464 8.90921C10.03 8.8613 10.1927 8.74951 10.3229 8.5738C10.5266 8.28788 10.7811 8.06866 11.0867 7.91614C11.3921 7.76362 11.7186 7.68734 12.0664 7.68734Z" fill="black"/>
</svg>
